# xmcd
#
# Track frame offsets:
#	150
#	11705
#	23220
#	32360
#	44810
#	56447
#	67580
#	77867
#	89405
#	100602
#	109317
#	120292
#	130635
#	142232
#	153397
#	164022
#	177052
#	188117
#	198772
#	210562
#
# Disc length: 2983 seconds
#
# Revision: 1
# Processed by: cddbd v1.4PL0 Copyright (c) Steve Scherf et al.
# Submitted via: EasyCDDAExtractor 5.0.7
#
DISCID=060ba514
DTITLE=Patsy Cline - Too Many Secrets
DYEAR=1900
DGENRE=Oldies
TTITLE0=Walkin' After Midnight
TTITLE1=I've Loved and Lost Again
TTITLE2=I Love You, Honey
TTITLE3=Fingerprints
TTITLE4=Never No More
TTITLE5=Hidin' Out
TTITLE6=Walking Dream
TTITLE7=Let The Teardrops Fall
TTITLE8=Just Out of Reach
TTITLE9=Ain't No Wheels on This Ship
TTITLE10=I Can't Forget
TTITLE11=Too Many Secrets
TTITLE12=In Care Of The Blues
TTITLE13=Hungry For Your Love
TTITLE14=I Don't Wanna
TTITLE15=If I Could See The World
TTITLE16=Stop The World
TTITLE17=I Can See An Angel
TTITLE18=Today, Tomorrow, and Forever
TTITLE19=Life's Railway to Heaven
EXTD=
EXTT0=
EXTT1=
EXTT2=
EXTT3=
EXTT4=
EXTT5=
EXTT6=
EXTT7=
EXTT8=
EXTT9=
EXTT10=
EXTT11=
EXTT12=
EXTT13=
EXTT14=
EXTT15=
EXTT16=
EXTT17=
EXTT18=
EXTT19=
PLAYORDER=
